<svg xmlns="http://www.w3.org/2000/svg" width="232" height="25.326" viewBox="0 0 232 25.326"><g id="Illustration_5" data-name="Illustration 5" transform="translate(116 12.663)"><path id="Trac&#xE9;_31" data-name="Trac&#xE9; 31" d="M0,24.923H6.769V.4H0ZM36.579,22.8a6.278,6.278,0,0,0,.311-2.089V.4H30.709v14.4L17.3,1.32A4.3,4.3,0,0,0,15.845.238,3.582,3.582,0,0,0,14.586,0,3.859,3.859,0,0,0,13.2.257a3.091,3.091,0,0,0-1.177.806,4.09,4.09,0,0,0-.817,1.43,6.272,6.272,0,0,0-.311,2.089V24.923h6.148v-14.4L30.447,24.007a4.041,4.041,0,0,0,1.422,1.081,3.671,3.671,0,0,0,1.292.238,3.989,3.989,0,0,0,1.406-.256,2.979,2.979,0,0,0,1.194-.825,4.3,4.3,0,0,0,.817-1.448M65.44,12.645a8.766,8.766,0,0,1-.491,3.207,3.961,3.961,0,0,1-1.586,1.924,7.076,7.076,0,0,1-2.862.935,33.04,33.04,0,0,1-4.317.238,33.046,33.046,0,0,1-4.317-.238,7.076,7.076,0,0,1-2.862-.935,3.966,3.966,0,0,1-1.586-1.924,8.783,8.783,0,0,1-.49-3.207,8.784,8.784,0,0,1,.49-3.207,3.872,3.872,0,0,1,1.586-1.906,7.28,7.28,0,0,1,2.862-.916,32.984,32.984,0,0,1,4.317-.238,32.978,32.978,0,0,1,4.317.238,7.28,7.28,0,0,1,2.862.916,3.867,3.867,0,0,1,1.586,1.906,8.767,8.767,0,0,1,.491,3.207m6.736,0q0-6.561-4.006-9.6T56.185,0q-8.013,0-12,3.042t-3.99,9.6q0,6.6,3.973,9.639t12.019,3.042q8.012,0,12-3.042t3.99-9.639m20.93,9.932L107.1.4h-7.98L88.856,16.677,79.012.4H70.705l13.7,22.174a7.121,7.121,0,0,0,1.75,1.961,4.1,4.1,0,0,0,2.567.788,4.035,4.035,0,0,0,2.616-.843,8.707,8.707,0,0,0,1.766-1.906m23.22-3.958V15.284h13.441l3.892-5.571H116.327V6.781h14.161L134.87.4H109.525v24.52h21.061l4.35-6.3Zm40.713-5.964-4.334-4.524L145.3.4h-8.668l11.744,12.251L136.628,24.9H145.3l7.41-7.726Zm.962-1L168.784.4h-8.668l-6.448,6.723,4.265,4.453ZM160.116,24.9h8.668L158,13.659l-.07.073-4.264,4.442Zm39.573-10.676V.4h-6.8V14.221a6.278,6.278,0,0,1-.343,2.2,3.278,3.278,0,0,1-1.128,1.5,5.116,5.116,0,0,1-2.093.843,17.418,17.418,0,0,1-3.271.256,30.585,30.585,0,0,1-4.251-.238,6.572,6.572,0,0,1-2.535-.806,2.88,2.88,0,0,1-1.226-1.484,6.821,6.821,0,0,1-.327-2.273V.4h-6.738V14.221a12.514,12.514,0,0,0,.867,4.857,8.279,8.279,0,0,0,2.714,3.463,12.752,12.752,0,0,0,4.693,2.089,28.96,28.96,0,0,0,6.8.7q13.638,0,13.638-11.106m27.373-7.44L231.412.4h-19a14.581,14.581,0,0,0-4.267.549,7.868,7.868,0,0,0-2.91,1.54,5.989,5.989,0,0,0-1.668,2.4,8.709,8.709,0,0,0-.539,3.134,8.086,8.086,0,0,0,.49,2.877,5.6,5.6,0,0,0,1.5,2.217,7.1,7.1,0,0,0,2.551,1.43,11.62,11.62,0,0,0,3.663.513h11.9a3.049,3.049,0,0,1,1.766.4,1.563,1.563,0,0,1,.556,1.356A1.614,1.614,0,0,1,224.9,18.2a2.944,2.944,0,0,1-1.766.421H206.589l-4.35,6.3h20.375a14.579,14.579,0,0,0,4.268-.55,7.725,7.725,0,0,0,2.927-1.576,5.974,5.974,0,0,0,1.668-2.529A10.21,10.21,0,0,0,232,16.9a6.055,6.055,0,0,0-2.093-5.04,9.646,9.646,0,0,0-6.116-1.668h-11.9a3.174,3.174,0,0,1-1.75-.385,1.492,1.492,0,0,1-.572-1.338,1.444,1.444,0,0,1,.572-1.319,3.3,3.3,0,0,1,1.75-.367Z" transform="translate(-116 -12.663)" fill="#fff"></path></g></svg>